REM DIRINDEX 1\2,1\3,1\4,1\5,1\6,1\7,1\8
REM DIRNAME cjc150,folder01,folder02,folder03,folder04,folder05,folder06,folder07
TITLE ""
FILE "007 ‚Å‚é•¶47.mp3" MP3
  TRACK 01 AUDIO
    TITLE "8:cjc150_2185"
    INDEX 01 00:00:00
  TRACK 02 AUDIO
    TITLE "0:"
    INDEX 01 00:01:56
  TRACK 03 AUDIO
    TITLE "2:cjc150_2186"
    INDEX 01 00:02:53
  TRACK 04 AUDIO
    TITLE "0:"
    INDEX 01 00:08:54
  TRACK 05 AUDIO
    TITLE "8:cjc150_2187"
    INDEX 01 00:10:12
  TRACK 06 AUDIO
    TITLE "0:"
    INDEX 01 00:12:65
  TRACK 07 AUDIO
    TITLE "3:cjc150_2188"
    INDEX 01 00:13:53
  TRACK 08 AUDIO
    TITLE "3:cjc150_2189"
    INDEX 01 00:14:72
  TRACK 09 AUDIO
    TITLE "3:cjc150_2190"
    INDEX 01 00:16:16
  TRACK 10 AUDIO
    TITLE "3:cjc150_2191"
    INDEX 01 00:18:31
  TRACK 11 AUDIO
    TITLE "3:cjc150_2192"
    INDEX 01 00:20:43
  TRACK 12 AUDIO
    TITLE "3:cjc150_2193"
    INDEX 01 00:22:32
  TRACK 13 AUDIO
    TITLE "3:cjc150_2194"
    INDEX 01 00:24:24
  TRACK 14 AUDIO
    TITLE "3:cjc150_2195"
    INDEX 01 00:25:54
  TRACK 15 AUDIO
    TITLE "3:cjc150_2196"
    INDEX 01 00:27:10
  TRACK 16 AUDIO
    TITLE "3:cjc150_2197"
    INDEX 01 00:28:72
  TRACK 17 AUDIO
    TITLE "8:cjc150_2198"
    INDEX 01 00:30:54
  TRACK 18 AUDIO
    TITLE "0:"
    INDEX 01 00:33:28
  TRACK 19 AUDIO
    TITLE "4:cjc150_2199"
    INDEX 01 00:34:24
  TRACK 20 AUDIO
    TITLE "4:cjc150_2200"
    INDEX 01 00:37:05
  TRACK 21 AUDIO
    TITLE "4:cjc150_2201"
    INDEX 01 00:40:21
  TRACK 22 AUDIO
    TITLE "4:cjc150_2202"
    INDEX 01 00:42:18
  TRACK 23 AUDIO
    TITLE "4:cjc150_2203"
    INDEX 01 00:44:34
  TRACK 24 AUDIO
    TITLE "4:cjc150_2204"
    INDEX 01 00:46:74
  TRACK 25 AUDIO
    TITLE "8:cjc150_2205"
    INDEX 01 00:49:74
  TRACK 26 AUDIO
    TITLE "0:"
    INDEX 01 00:52:69
  TRACK 27 AUDIO
    TITLE "5:cjc150_2206"
    INDEX 01 00:53:57
  TRACK 28 AUDIO
    TITLE "5:cjc150_2207"
    INDEX 01 00:55:20
  TRACK 29 AUDIO
    TITLE "5:cjc150_2208"
    INDEX 01 00:57:25
  TRACK 30 AUDIO
    TITLE "5:cjc150_2209"
    INDEX 01 00:58:46
  TRACK 31 AUDIO
    TITLE "5:cjc150_2210"
    INDEX 01 00:59:59
  TRACK 32 AUDIO
    TITLE "5:cjc150_2211"
    INDEX 01 01:02:65
  TRACK 33 AUDIO
    TITLE "5:cjc150_2212"
    INDEX 01 01:06:10
  TRACK 34 AUDIO
    TITLE "5:cjc150_2213"
    INDEX 01 01:08:17
  TRACK 35 AUDIO
    TITLE "5:cjc150_2214"
    INDEX 01 01:10:30
  TRACK 36 AUDIO
    TITLE "5:cjc150_2215"
    INDEX 01 01:12:28
  TRACK 37 AUDIO
    TITLE "5:cjc150_2216"
    INDEX 01 01:14:74
  TRACK 38 AUDIO
    TITLE "5:cjc150_2217"
    INDEX 01 01:16:63
  TRACK 39 AUDIO
    TITLE "5:cjc150_2218"
    INDEX 01 01:18:43
  TRACK 40 AUDIO
    TITLE "5:cjc150_2219"
    INDEX 01 01:20:18
  TRACK 41 AUDIO
    TITLE "5:cjc150_2220"
    INDEX 01 01:22:35
  TRACK 42 AUDIO
    TITLE "5:cjc150_2221"
    INDEX 01 01:23:62
  TRACK 43 AUDIO
    TITLE "5:cjc150_2222"
    INDEX 01 01:25:04
  TRACK 44 AUDIO
    TITLE "5:cjc150_2223"
    INDEX 01 01:27:28
  TRACK 45 AUDIO
    TITLE "5:cjc150_2224"
    INDEX 01 01:29:74
  TRACK 46 AUDIO
    TITLE "5:cjc150_2225"
    INDEX 01 01:31:63
  TRACK 47 AUDIO
    TITLE "8:cjc150_2226"
    INDEX 01 01:33:42
  TRACK 48 AUDIO
    TITLE "0:"
    INDEX 01 01:36:25
  TRACK 49 AUDIO
    TITLE "6:cjc150_2227"
    INDEX 01 01:37:05
  TRACK 50 AUDIO
    TITLE "6:cjc150_2228"
    INDEX 01 01:41:09
  TRACK 51 AUDIO
    TITLE "6:cjc150_2229"
    INDEX 01 01:44:56
  TRACK 52 AUDIO
    TITLE "6:cjc150_2230"
    INDEX 01 01:47:39
  TRACK 53 AUDIO
    TITLE "6:cjc150_2231"
    INDEX 01 01:50:19
  TRACK 54 AUDIO
    TITLE "6:cjc150_2232"
    INDEX 01 01:52:22
  TRACK 55 AUDIO
    TITLE "6:cjc150_2233"
    INDEX 01 01:54:66
  TRACK 56 AUDIO
    TITLE "6:cjc150_2234"
    INDEX 01 01:56:55
  TRACK 57 AUDIO
    TITLE "6:cjc150_2235"
    INDEX 01 01:58:36
  TRACK 58 AUDIO
    TITLE "6:cjc150_2236"
    INDEX 01 02:01:37
  TRACK 59 AUDIO
    TITLE "6:cjc150_2237"
    INDEX 01 02:04:64
  TRACK 60 AUDIO
    TITLE "6:cjc150_2238"
    INDEX 01 02:07:33
  TRACK 61 AUDIO
    TITLE "8:cjc150_2239"
    INDEX 01 02:09:17
  TRACK 62 AUDIO
    TITLE "0:"
    INDEX 01 02:10:71
  TRACK 63 AUDIO
    TITLE "7:cjc150_2240"
    INDEX 01 02:11:49
  TRACK 64 AUDIO
    TITLE "7:cjc150_2241"
    INDEX 01 02:17:49
  TRACK 65 AUDIO
    TITLE "0:"
    INDEX 01 02:23:72
